<?xml version="1.0" standalone="no"?>
<!DOCTYPE svg PUBLIC "-//W3C//DTD SVG 1.1//EN" "http://www.w3.org/Graphics/SVG/1.1/DTD/svg11.dtd" >
<svg xmlns="http://www.w3.org/2000/svg">
<metadata></metadata>
<defs>
<font id="zeldaregular" horiz-adv-x="620" >
<font-face units-per-em="2048" ascent="1638" descent="-410" />
<missing-glyph horiz-adv-x="577" />
<glyph horiz-adv-x="0" />
<glyph unicode="&#xd;" horiz-adv-x="577" />
<glyph unicode=" "  horiz-adv-x="577" />
<glyph unicode="&#x09;" horiz-adv-x="577" />
<glyph unicode="&#xa0;" horiz-adv-x="577" />
<glyph unicode="!" horiz-adv-x="331" d="M143 0v143h45v-143h-45zM152 229v1205h26v-1205h-26z" />
<glyph unicode="&#x22;" horiz-adv-x="245" d="M121 1057v387h26v-387h-26zM223 1057v387h27v-387h-27z" />
<glyph unicode="#" horiz-adv-x="1300" d="M39 469l6 25h387l72 344h-387l6 24h387l98 469h25l-98 -469h303l98 469h25l-99 -469h387l-6 -24h-387l-72 -344h387l-6 -25h-387l-98 -469h-25l99 469h-303l-99 -469h-24l98 469h-387zM457 494h303l71 344h-303z" />
<glyph unicode="$" horiz-adv-x="970" d="M72 303l30 8q0 -137 117 -231q78 -66 180 -70v848q-104 41 -170 115q-74 84 -73 188q0 100 71.5 181t171.5 94v88h25v-82q41 4 74 4q27 0 47 -2v80h24v-86q88 -14 157 -74.5t93 -146.5l-20 -11q-43 143 -185 195q-29 10 -45 12v-596q150 -53 238 -166q92 -119 92 -272 q0 -147 -68 -250q-76 -111 -213 -141q-14 -4 -49 -8v-107h-24v104q-20 -2 -47 -2q-33 0 -74 5v-107h-25v113q-111 4 -193.5 71.5t-117.5 173.5q-14 45 -16 72zM182 1137q10 -141 174 -236l43 -18v530q-16 -2 -43 -12q-86 -35 -133 -104.5t-41 -159.5zM424 4q41 -4 74 -4 q27 0 47 2v797l-121 49v-844zM424 874l121 -49v594q-29 8 -60 8t-61 -8v-545zM569 4q16 4 45 8q262 61 263 367q0 170 -119 293q-57 59 -156 102q-8 6 -33 14v-784z" />
<glyph unicode="%" horiz-adv-x="1398" d="M72 1090q0 156 92 255t246 99t248 -98.5t94 -251.5q0 -154 -94.5 -252.5t-247.5 -98.5q-256 0 -324 244q-14 51 -14 103zM96 1092q0 -35 13 -97q51 -164 190 -211q61 -20 119 -20q139 0 223 94t84 236q0 139 -84 232t-221 93q-176 0 -266 -133q-57 -84 -58 -194zM178 0 l1004 1427h37l-1006 -1427h-35zM621 346q0 156 93 254t247 98q152 0 244.5 -98t92.5 -252q0 -156 -92 -253t-245 -97q-254 0 -326 246q-14 49 -14 102zM645 342q0 -41 14 -92q48 -166 189 -213q61 -20 119 -21q137 0 222 94.5t85 233.5t-84 234.5t-221 95.5 q-176 0 -267 -135q-57 -84 -57 -197z" />
<glyph unicode="&#x26;" horiz-adv-x="1138" d="M63 438q0 193 130 328q96 100 233 129q-84 29 -136 101.5t-52 162.5q0 121 84 204t204 83q178 0 248 -152l-20 -12q-68 139 -234 139q-68 0 -127 -35q-129 -76 -129 -225q0 -98 65.5 -172t164.5 -88v-24q-100 -6 -183 -54q-219 -127 -219 -370q0 -227 174 -357 q111 -84 252 -84q246 0 371 201q70 113 69 233q0 84 -34 162l-43 -18l-37 -17l-221 -100l-11 29l496 217l10 -23l-41 -20l-43 -21l-45 -20l-43 -19q39 -84 39 -178q0 -164 -113 -297q-131 -154 -354 -153q-195 0 -325 129t-130 321z" />
<glyph unicode="'" horiz-adv-x="157" d="M74 1057v387h26v-387h-26z" />
<glyph unicode="(" horiz-adv-x="679" d="M127 680q9 718 535 868v-22q-260 -82 -396 -320q-117 -211 -116 -504q0 -117 18 -241q74 -502 496 -688v-23q-281 111 -418 373q-123 233 -119 557z" />
<glyph unicode=")" horiz-adv-x="679" d="M0 1526v22q543 -215 537 -932q-6 -715 -535 -866v23q262 84 393 319q119 209 119 502q0 119 -18 244q-74 502 -496 688z" />
<glyph unicode="*" horiz-adv-x="616" d="M57 1159v29h222l-158 155l16 19l158 -156v230h24v-230l158 158l17 -21l-160 -155h225v-25h-223l160 -155l-19 -21l-155 156l-3 -215h-26l2 217l-158 -160l-16 19l158 155h-222z" />
<glyph unicode="+" horiz-adv-x="780" d="M57 457v26h322v322h27v-322h321v-26h-321v-322h-27v322h-322z" />
<glyph unicode="," horiz-adv-x="225" d="M-20 -223l157 354l25 -10l-158 -354z" />
<glyph unicode="-" d="M57 457v26h506v-26h-506z" />
<glyph unicode="." horiz-adv-x="210" d="M90 0v143h27v-143h-27z" />
<glyph unicode="/" horiz-adv-x="565" d="M43 -119l449 1673l30 -6l-448 -1673z" />
<glyph unicode="0" horiz-adv-x="1292" d="M59 584q0 248 170 423t418 175q246 0 416 -175.5t170 -422.5q0 -246 -170 -421t-416 -175q-248 0 -418 174t-170 422zM84 584q0 -238 163 -405t400 -167q236 0 398.5 168t162.5 404t-162.5 404.5t-398.5 168.5q-238 0 -400.5 -168t-162.5 -405z" />
<glyph unicode="1" horiz-adv-x="1290" d="M408 1159l272 275v-1434h-29v1366l-205 -207h-38z" />
<glyph unicode="2" horiz-adv-x="1290" d="M270 0l584 778q90 121 102 279q12 156 -76.5 258t-244.5 102q-190 0 -305 -129l-15 21q129 141 322 135q156 -4 251 -100.5t95 -249.5q0 -184 -113 -336l-542 -733h690v-25h-748z" />
<glyph unicode="3" horiz-adv-x="1292" d="M291 0v25q270 0 465 155q221 178 221 420q0 88 -23 158q-88 272 -374 354q-51 14 -80 18l276 279h-473v25h528l-286 -289q252 -57 373 -250q84 -133 83 -293q0 -184 -114 -336q-109 -139 -287 -215q-149 -63 -309 -51z" />
<glyph unicode="4" horiz-adv-x="1294" d="M201 422l553 1012h30l-536 -988h641v482h24v-482h123v-24h-123v-422h-24v422h-688z" />
<glyph unicode="5" horiz-adv-x="1292" d="M285 1141l47 293h483v-23h-459l-43 -246q285 0 478 -133q217 -152 217 -426q0 -219 -140 -383q-104 -123 -256.5 -188.5t-314.5 -57.5v27q268 -8 473 162q213 178 213 444q0 225 -160 365q-141 119 -379 153q-72 10 -122 11q-10 2 -37 2z" />
<glyph unicode="6" horiz-adv-x="1292" d="M57 588q0 159 80 358q133 330 451 481q61 29 106 43l15 -22q-281 -90 -453 -336q-59 -84 -111 -201l-8 -18l-10 -27q76 145 214 229.5t302 84.5q246 0 417 -175.5t171 -420.5q0 -248 -170 -423t-418 -175t-417 176t-169 426zM82 584q0 -236 162.5 -405t398.5 -169 q238 0 400.5 168t162.5 406t-162.5 404.5t-400.5 166.5q-236 0 -398.5 -168t-162.5 -403z" />
<glyph unicode="7" horiz-adv-x="1290" d="M256 1409v25h748l-566 -1434h-28l557 1409h-711z" />
<glyph unicode="8" horiz-adv-x="1300" d="M186 436q0 197 129 330q95 98 232 127q-82 27 -134.5 100.5t-52.5 161.5q0 121 81 204t202 83q150 0 234 -115q55 -78 55 -172q0 -88 -52.5 -159.5t-136.5 -100.5q162 -35 260.5 -164t98.5 -297q0 -197 -130 -321.5t-327 -124.5t-328 127t-131 321zM215 442 q0 -57 18 -125q86 -303 412 -303q152 0 261.5 79t150.5 224q18 66 18 129q0 137 -73.5 250t-200.5 154q-82 27 -162 27q-186 0 -304 -124t-120 -311zM391 1157q0 -45 8 -74q51 -180 246 -180q115 0 185.5 70.5t70.5 185.5q0 82 -44 147.5t-120 90.5q-49 16 -98 16 q-109 0 -178.5 -73.5t-69.5 -182.5z" />
<glyph unicode="9" horiz-adv-x="1292" d="M63 850q0 248 170 423t418 175t418 -176t168 -426q0 -160 -80 -359q-131 -328 -450 -481q-61 -29 -107 -43l-14 23q279 90 452 336q57 82 111 200l8 19l10 26q-78 -145 -215 -229t-301 -84q-248 0 -418 174t-170 422zM88 850q0 -238 163 -404.5t400 -166.5 q236 0 398.5 167.5t162.5 403.5t-162.5 404.5t-398.5 168.5q-238 0 -400.5 -168t-162.5 -405z" />
<glyph unicode=":" horiz-adv-x="266" d="M119 -2v147h26v-147h-26zM119 639v145h26v-145h-26z" />
<glyph unicode=";" horiz-adv-x="274" d="M-20 -223l157 354l25 -10l-158 -354zM135 639v145h27v-145h-27z" />
<glyph unicode="&#x3c;" d="M0 457v26l543 166l8 -26l-502 -152l502 -154l-8 -26z" />
<glyph unicode="=" horiz-adv-x="780" d="M57 334v26h670v-26h-670zM57 580v26h670v-26h-670z" />
<glyph unicode="&#x3e;" d="M70 317l8 -26l543 166v26l-543 166l-8 -26l501 -152z" />
<glyph unicode="?" horiz-adv-x="718" d="M115 0v143h47v-143h-47zM123 238v124q260 39 397 248q88 133 88 289q0 207 -137 355.5t-342 172.5v25q82 -6 172 -45q152 -66 242 -202t90 -302q0 -150 -76 -280q-135 -233 -405 -283v-102h-29z" />
<glyph unicode="@" horiz-adv-x="1560" d="M55 709q0 307 214 521t522 214q307 0 512 -176q215 -184 221 -486l2 -110q2 -125 -98.5 -212t-233.5 -81q-111 6 -131 12q-74 23 -62 88l15 74q-119 -152 -320 -152q-115 0 -186 60q-78 63 -78 176q0 174 150 291q113 90 249 88q88 0 154 -39q76 -45 98 -123l29 137h23 l-111 -512q-6 -49 59 -65q25 -6 111 -11q92 -4 180 53.5t113 145.5q10 39 8 180q-6 287 -215 463q-199 168 -489 168q-293 0 -499 -206t-206 -498q0 -293 206 -498t499 -205q190 0 349.5 91t256.5 255q16 -2 35 -2q-98 -176 -268 -275.5t-373 -99.5q-307 0 -521.5 214 t-214.5 520zM461 627q10 -144 135 -185q55 -18 111 -18q125 0 224 81t128 204q8 37 8 61q0 158 -139 205q-53 18 -111 18q-147 0 -256.5 -110.5t-99.5 -255.5z" />
<glyph unicode="A" horiz-adv-x="956" d="M-29 0l506 1493l506 -1493h-25l-114 328h-731l-111 -328h-31zM121 352h713l-357 1073z" />
<glyph unicode="B" horiz-adv-x="780" d="M143 -4v1438h29q92 -2 150 -43q66 -47 65 -136q0 -133 -176 -170q-6 0 -21 -4l23 -2l33 -4q209 -27 329.5 -168t120.5 -352q0 -76 -16 -156q-39 -188 -189.5 -295.5t-347.5 -107.5zM168 20q178 8 316 109.5t173 271.5q16 80 17 150q0 215 -129 352q-150 156 -350 156h-27 v-1039zM168 1102q12 0 18 2q125 14 162 88q16 33 17 68q0 59 -42 97t-104 44q-27 3 -41 3q-7 0 -10 -1v-301z" />
<glyph unicode="C" horiz-adv-x="688" d="M63 737q0 260 153 458t407 241v-25q-244 -37 -390 -231q-139 -184 -139 -437q0 -100 25 -206q47 -199 178 -335t328 -177l-2 -23q-203 43 -342.5 182.5t-190.5 343.5q-27 109 -27 209z" />
<glyph unicode="D" horiz-adv-x="903" d="M143 0v1436q305 -23 486 -193q190 -182 190 -481q0 -90 -16 -178q-68 -356 -420 -518q-107 -50 -240 -66zM168 25q225 31 396 188.5t214 378.5q16 86 17 170q0 252 -148 422q-143 164 -393 215q-51 10 -86 12v-1386z" />
<glyph unicode="E" horiz-adv-x="753" d="M143 506v928h527v-25h-502v-235h502v-25h-502v-633q0 -193 92 -321q98 -135 283 -170q58 -11 117 -11h10v-24h-29q-139 0 -252 61q-246 136 -246 455z" />
<glyph unicode="F" horiz-adv-x="614" d="M143 0v1434h471v-25h-446v-235h446v-25h-446v-1149h-25z" />
<glyph unicode="G" horiz-adv-x="903" d="M84 750q0 297 195 485q180 176 481 221v-24q-82 -10 -142 -29q-242 -76 -372 -236q-139 -170 -140 -415q0 -88 21 -189q43 -211 205 -352q154 -133 373 -176h16q12 -2 16 -2v1138h-309v23h332v-1194q-10 2 -35 6q-240 39 -401 174q-172 145 -220 375q-20 98 -20 195z" />
<glyph unicode="H" horiz-adv-x="1079" d="M143 0v1434h25v-260h743v260h25v-1434h-25v1149h-743v-1149h-25z" />
<glyph unicode="I" horiz-adv-x="311" d="M143 0v1434h25v-1434h-25z" />
<glyph unicode="J" horiz-adv-x="673" d="M74 -10v24q117 6 209 49q270 127 311 396q6 41 6 71v904h23v-914q0 -29 -7 -74q-39 -283 -323 -409q-96 -43 -219 -47z" />
<glyph unicode="K" horiz-adv-x="854" d="M143 0v1434h25v-246l479 246h47l-311 -162l471 -1272h-27l-469 1260l-190 -101v-1159h-25z" />
<glyph unicode="L" horiz-adv-x="610" d="M143 0v1434h25v-1409h514v-25h-539z" />
<glyph unicode="M" horiz-adv-x="1202" d="M-29 0l348 1450l269 -313l266 313l377 -1450h-25l-366 1393l-252 -293l-254 293l-338 -1393h-25z" />
<glyph unicode="N" horiz-adv-x="1112" d="M143 0v1434q14 0 47 -4q375 -39 705 -248l23 -15l28 -20v287h23v-1434h-23v1112l-28 21l-27 18q-10 8 -66 41q-193 119 -428 178q-121 31 -229 39v-1409h-25z" />
<glyph unicode="O" horiz-adv-x="1654" d="M53 715q0 330 207 537.5t537 207.5q262 0 450.5 -135t259.5 -385q31 -106 31 -221t-31 -221q-70 -240 -259 -381.5t-439 -141.5q-139 0 -279 45q-340 111 -444 478q-33 115 -33 217zM82 717q0 -109 29 -209q70 -242 251 -371t435 -129q305 0 509.5 197.5t204.5 501.5 q0 111 -30 223q-98 356 -428 461q-135 43 -269 43q-307 0 -504.5 -204t-197.5 -513z" />
<glyph unicode="P" horiz-adv-x="698" d="M143 0v1436q219 -12 361 -140q151 -132 151 -345q0 -73 -14 -138q-57 -260 -360 -348q-16 -6 -60 -14l-28 -5l-25 -2v-444h-25zM168 469q236 16 371 182q94 115 94 277q0 61 -17 133q-31 137 -142.5 231t-254.5 111l-26 6l-25 2v-942z" />
<glyph unicode="Q" horiz-adv-x="1591" d="M55 717q0 238 119 426q127 197 344 270q141 47 277 47q317 0 512 -223q182 -206 182 -515v-20q-8 -391 -307 -600l32 -49l27 -33l25 -38l98 -132l43 -61l-23 -27l-59 84l-27 35l-145 201q-178 -104 -383 -105q-313 0 -516 216q-199 209 -199 524zM82 717q0 -301 190 -504 q193 -209 492 -209q201 0 377 98l-49 70l-17 21l-186 262l26 14l252 -350q293 207 299 590v13q0 300 -176 503q-188 213 -493 213q-133 0 -269 -45q-211 -70 -331 -263q-115 -182 -115 -413z" />
<glyph unicode="R" horiz-adv-x="706" d="M143 0v1436l25 -2l29 -4q203 -29 317 -152q121 -129 121 -330q0 -70 -14 -141q-31 -154 -154 -253t-281 -105q8 -20 23 -50q78 -147 213 -254q29 -23 55 -41l98 -67l39 -25v-26l-20 12l-23 14q-12 8 -45 29q-248 166 -340 352l-8 23l-10 22v-438h-25zM168 471l22 2l25 4 q180 31 288.5 149.5t108.5 299.5q0 61 -14 129q-53 252 -334 338q-33 10 -96 18v-940z" />
<glyph unicode="S" horiz-adv-x="710" d="M86 0q74 4 135 20q309 82 369 304q16 61 16 110q0 162 -178 285q-25 16 -145 88q-180 106 -181 276q0 90 39 168q78 154 291 197l21 4l18 2v-24l-37 -5q-27 -2 -39 -6q-217 -55 -260 -260q-10 -49 -10 -86q0 -109 117 -205q51 -43 209 -133q35 -20 67 -51 q106 -102 107 -254q0 -59 -15 -115q-41 -156 -204 -247q-136 -77 -320 -93v25z" />
<glyph unicode="T" horiz-adv-x="473" d="M-29 1409v25h531v-25h-252v-1409h-25v1409h-254z" />
<glyph unicode="U" horiz-adv-x="970" d="M143 334v1100h25v-1100q0 -152 76 -240q80 -94 227 -94q53 0 125 16q207 47 207 318v1100h24v-1100q0 -311 -274 -350q-35 -5 -69 -5t-66 5q-275 41 -275 350z" />
<glyph unicode="V" horiz-adv-x="548" d="M-14 1434h24l275 -1381l254 1381h24l-278 -1495z" />
<glyph unicode="W" horiz-adv-x="1130" d="M-14 1434h24l275 -1362l278 1257l299 -1257l258 1362h25l-283 -1495l-299 1275l-278 -1275z" />
<glyph unicode="X" horiz-adv-x="718" d="M-14 2l358 813l-287 615h25l276 -584l279 584h25l-285 -615l356 -815h-24l-351 784l-348 -782h-24z" />
<glyph unicode="Y" horiz-adv-x="641" d="M-57 1434h32l347 -297l344 297h32l-366 -322v-1112h-23v1112z" />
<glyph unicode="Z" horiz-adv-x="776" d="M43 0l631 1409h-568v25h605l-625 -1409h647v-25h-690z" />
<glyph unicode="[" horiz-adv-x="667" d="M143 -246v1802h519v-24h-494v-1753h494v-25h-519z" />
<glyph unicode="\" horiz-adv-x="565" d="M43 1548l449 -1673l30 6l-448 1673z" />
<glyph unicode="]" horiz-adv-x="667" d="M0 -221v-25h518v1802h-518v-24h494v-1753h-494z" />
<glyph unicode="^" horiz-adv-x="1228" d="M80 485l483 928h107l479 -928h-86l-447 861l-450 -861h-86z" />
<glyph unicode="_" horiz-adv-x="1024" d="M0 -154h1024v-102h-1024v102z" />
<glyph unicode="`" horiz-adv-x="342" d="M-61 1497h104l246 -287h-76z" />
<glyph unicode="a" horiz-adv-x="821" d="M57 293q0 135 94.5 221t229.5 86q207 -2 287 -162v144q0 106 -86 153q-62 34 -150 34q-17 0 -35 -1q-109 -8 -166 -66l-14 21q66 63 178 72q22 2 43 2q94 0 158 -37q94 -51 94 -170v-590h-22v137q-87 -151 -284 -151h-3q-139 0 -231.5 85t-92.5 222zM84 295 q0 -92 51 -166q82 -121 250 -121q125 0 208 80t83 205q0 90 -52.5 164.5t-138.5 101.5q-57 18 -112 19q-123 0 -206 -80t-83 -203z" />
<glyph unicode="b" horiz-adv-x="1005" d="M115 0v1434h24v-902q88 266 385 269q180 0 294 -115t116 -295v-6q0 -175 -114 -287q-116 -114 -296 -114q-133 0 -235 65q-109 68 -150 189v-238h-24zM135 391q0 -57 17 -115q77 -268 372 -268q293 0 371 268q16 57 16 115q0 57 -16 115q-80 270 -371 270 q-172 0 -280.5 -106.5t-108.5 -278.5z" />
<glyph unicode="c" horiz-adv-x="434" d="M59 393q0 150 87.5 261.5t232.5 138.5v-25q-133 -25 -213 -129t-80 -242q0 -176 111 -284q76 -76 182 -93v-24q-147 23 -236 137q-84 109 -84 260z" />
<glyph unicode="d" horiz-adv-x="1005" d="M55 391q2 180 116 295t294 115q252 -2 356 -199q9 -17 29 -70v902h24v-1434h-24v238q-41 -121 -146.5 -187.5t-238.5 -66.5q-180 0 -296 114q-114 112 -114 287v6zM80 391q0 -197 151 -311q96 -74 228 -74q71 0 149 25q172 55 230 245q16 55 16 115q0 59 -16 115 q-57 195 -230 248q-75 24 -142 24h-5q-164 0 -272.5 -111.5t-108.5 -275.5z" />
<glyph unicode="e" horiz-adv-x="700" d="M68 377v18q0 185 122 299q114 108 284 108q20 0 40 -1q94 -9 184 -58l-63 -45l-150 -102l-176 -127l-213 -147q4 -23 15 -68q72 -207 282 -240l-6 -24q-86 16 -154 65q-158 115 -165 322zM94 348l33 27l25 16l53 37l86 57l366 256q-86 35 -186 35q-150 0 -254 -91 t-123 -239q-3 -24 -3 -48t3 -50z" />
<glyph unicode="f" horiz-adv-x="313" d="M57 758v24h60v441q0 135 90 192q55 34 111 34q11 0 22 -1v-25q-13 2 -27 2q-45 0 -88 -26q-84 -53 -84 -176v-441h193v-24h-193v-758h-24v758h-60z" />
<glyph unicode="g" horiz-adv-x="876" d="M78 420q0 63 22 131q78 231 334 231h340v-24h-219q184 -68 217 -273q6 -37 6 -67q0 -131 -78.5 -227.5t-207.5 -110.5q25 -2 63 -14q117 -37 189.5 -133.5t72.5 -217.5q0 -141 -100 -252q-123 -135 -287 -135q-35 0 -72 8q-190 43 -260 195l21 12q45 -100 172 -155 q80 -35 155 -35q137 0 250 125q94 104 95 241q0 98 -51.5 181.5t-139.5 126.5q-80 39 -168 39q-102 0 -188 -52.5t-129 -142.5l-21 12q80 170 266 199q-127 14 -204.5 111.5t-77.5 226.5zM102 426q0 -43 11 -98q73 -236 315 -236q145 0 235.5 94.5t90.5 239.5 q0 141 -90.5 239.5t-231.5 98.5q-176 0 -270 -139q-59 -86 -60 -199z" />
<glyph unicode="h" horiz-adv-x="831" d="M115 0v1434h24v-813q2 8 11 24q70 150 272 154h10q122 0 197 -49q88 -61 88 -185v-565h-25v561q0 113 -82 168q-66 43 -170 43h-18q-109 -4 -191 -63q-92 -68 -92 -172v-537h-24z" />
<glyph unicode="i" horiz-adv-x="241" d="M86 983q0 35 33 35q37 0 37 -35q0 -31 -37 -35q-33 4 -33 35zM109 0v782h24v-782h-24z" />
<glyph unicode="j" horiz-adv-x="243" d="M-86 -635q18 -3 35 -3q68 0 112 52q49 57 50 154v1214h24v-1214q0 -145 -92 -201q-48 -29 -97 -29q-16 0 -32 3v24zM90 983q0 35 33 35q35 0 35 -35q0 -31 -35 -35q-33 4 -33 35z" />
<glyph unicode="k" horiz-adv-x="657" d="M115 12v1422h24v-1106l377 456h31l-397 -481l28 -33q256 -293 637 -354v-25q-225 37 -422 164q-94 61 -223 191l-16 16l-15 17v-267h-24z" />
<glyph unicode="l" horiz-adv-x="253" d="M115 0v1434h24v-1434h-24z" />
<glyph unicode="m" horiz-adv-x="1406" d="M115 0v782h24v-131q53 152 262 154h9q98 0 178 -41q96 -51 117 -143q51 184 292 184q123 0 203 -55q92 -61 92 -179v-571h-26v530q0 250 -269 250q-125 0 -200 -61q-82 -68 -82 -189v-530h-25v530q0 121 -86 189q-78 61 -203 61q-117 0 -189.5 -66.5t-72.5 -183.5v-530 h-24z" />
<glyph unicode="n" horiz-adv-x="831" d="M115 0v782h24v-166q8 16 8 25q63 164 275 164q115 0 196 -51q98 -59 99 -168v-586h-25v543q0 119 -74 180q-70 57 -181 57h-15q-211 -6 -268 -182q-14 -43 -15 -82v-516h-24z" />
<glyph unicode="o" horiz-adv-x="964" d="M53 391q0 180 116 295t296 115q145 0 248.5 -75t142.5 -212q16 -57 16 -121q0 -66 -16 -123q-59 -205 -244 -264q-75 -24 -149 -24h-6q-139 0 -242.5 77.5t-142.5 210.5q-18 63 -19 121zM78 391q0 -197 151 -311q96 -74 228 -74q73 0 149 25q172 55 230 245q16 55 16 115 q0 59 -16 115q-57 195 -230 248q-75 24 -142 24h-5q-164 0 -272.5 -111.5t-108.5 -275.5z" />
<glyph unicode="p" horiz-adv-x="1017" d="M115 -645v1427h24v-235q45 121 148.5 186.5t234.5 65.5q143 0 249 -77t144 -214q18 -66 19 -127q0 -174 -118 -289t-294 -115q-137 0 -238.5 70t-144.5 199v-891h-24zM139 387q0 -170 106.5 -277.5t276.5 -107.5q166 0 276.5 107.5t110.5 271.5q0 61 -16 121 q-53 193 -231 250q-73 24 -141 24h-5q-166 0 -271.5 -110.5t-105.5 -278.5z" />
<glyph unicode="q" horiz-adv-x="1017" d="M70 379q0 66 16 129q35 133 139.5 212t243.5 79q113 0 207 -45q106 -51 153 -144l33 -63v235h25v-1427h-25v895q-4 -8 -14 -33q-98 -240 -371 -240q-176 0 -291.5 114t-115.5 288zM94 387q0 -170 106.5 -277.5t276.5 -107.5q168 0 276.5 106.5t108.5 272.5q0 61 -16 121 q-35 131 -133.5 200.5t-235.5 69.5q-170 0 -276.5 -107.5t-106.5 -277.5z" />
<glyph unicode="r" horiz-adv-x="393" d="M115 4v778h24v-153q45 113 193 145q32 7 64 7l26 -1v-24q-11 1 -24 1q-32 0 -74 -7q-78 -23 -131.5 -88.5t-53.5 -145.5v-512h-24z" />
<glyph unicode="s" horiz-adv-x="397" d="M57 2q76 6 146 45q112 60 112 178q0 86 -65 144l-117 100q-68 57 -67 139q0 98 86 146q16 8 51 22q31 8 47 8v-24q-16 0 -41 -6q-119 -31 -119 -146q0 -70 68 -129l116 -102q66 -57 66 -148q0 -133 -127 -202q-76 -42 -156 -50v25z" />
<glyph unicode="t" horiz-adv-x="325" d="M57 758v24h60v295h24v-295h193v-24h-193v-541q0 -129 84 -180q41 -25 87 -25q14 0 28 2v-24q-16 -2 -31 -2q-54 0 -100 28q-92 55 -92 201v541h-60z" />
<glyph unicode="u" horiz-adv-x="815" d="M115 250v532h24v-532q0 -248 267 -248q270 0 270 248v532h22v-532q0 -227 -204 -264q-47 -8 -95 -9q-131 0 -207.5 72t-76.5 201z" />
<glyph unicode="v" horiz-adv-x="559" d="M-14 782h30l265 -757l264 757h28l-292 -829z" />
<glyph unicode="w" horiz-adv-x="966" d="M0 782h27l264 -757l192 528l195 -528l264 757h25l-289 -829l-195 528l-192 -528z" />
<glyph unicode="x" horiz-adv-x="657" d="M-14 0l325 416l-282 366h26l273 -346l270 346h29l-285 -366l330 -416h-31l-313 397l-314 -397h-28z" />
<glyph unicode="y" horiz-adv-x="559" d="M-14 782h30l265 -757l264 757h28l-503 -1427h-29l223 635z" />
<glyph unicode="z" horiz-adv-x="706" d="M35 0l549 758h-490v24h541l-545 -757h567v-25h-622z" />
<glyph unicode="{" horiz-adv-x="819" d="M20 633v26l232 70q25 676 532 819v-22q-260 -82 -393 -316q-119 -209 -119 -501l-202 -62l206 -63q7 -66 15 -123q74 -502 495 -688v-23q-494 197 -534 811z" />
<glyph unicode="|" horiz-adv-x="311" d="M143 0v1434h25v-1434h-25z" />
<glyph unicode="}" horiz-adv-x="819" d="M0 1526v22q494 -197 535 -811l231 -71v-27l-229 -70q-27 -676 -535 -819v23q262 82 395 317q117 209 117 502l203 61l-207 62q-6 66 -14 123q-74 502 -496 688z" />
<glyph unicode="~" horiz-adv-x="1228" d="M150 455q53 88 102 125q59 45 147 45q82 0 228 -66q47 -23 94 -47q61 -27 115 -27q106 0 188 154l57 -57q-113 -174 -247 -174q-80 0 -234 77q-121 61 -188 62q-135 0 -203 -154z" />
<glyph unicode="&#xa1;" horiz-adv-x="681" d="M260 86l47 625h68l47 -625v-485h-162v485zM260 897v174h162v-174h-162z" />
<glyph unicode="&#xa2;" horiz-adv-x="860" d="M55 498q0 193 105 323q115 142 301 146v114h22v-114q150 0 254 -78l17 -12l18 -15v-35q-111 115 -289 115v-917q170 0 285 110v-29l-16 -14l-17 -12q-106 -80 -252 -80v-135h-22v135q-152 4 -254.5 98.5t-134.5 245.5q-16 76 -17 154zM90 504q0 -72 14 -144 q29 -143 119 -231q94 -94 238 -104v917q-174 -4 -277 -137q-94 -123 -94 -301z" />
<glyph unicode="&#xa3;" horiz-adv-x="772" d="M115 322v22h47v133h-47v25h47v487q0 193 135 316q125 113 324 133l38 4l27 2v-25l-27 -2l-36 -4q-188 -20 -310 -131q-129 -119 -129 -303v-477h394v-25h-394v-133h394v-22h-394v-297h502v-25h-524v322h-47z" />
<glyph unicode="&#xa4;" horiz-adv-x="1138" d="M61 707q-2 188 125 329l-116 115l55 55l115 -114q143 121 327 122q186 2 332 -124l111 112l55 -55l-113 -111q125 -139 125 -329t-125 -328l111 -111l-55 -55l-109 111q-143 -125 -332 -125q-188 0 -327 125l-113 -115l-55 55l114 113q-123 145 -125 330zM152 707 q0 -178 123.5 -304.5t293.5 -126.5t294 126t124 305q0 178 -124 304t-294 126t-293.5 -126t-123.5 -304z" />
<glyph unicode="&#xa5;" horiz-adv-x="1138" d="M-14 1462h98l487 -766l490 766h92l-487 -762h188v-67h-246v-160h246v-67h-246v-406h-78v406h-245v67h245v160h-245v67h188z" />
<glyph unicode="&#xa6;" horiz-adv-x="532" d="M211 -39v578h113v-578h-113zM211 969v540h113v-540h-113z" />
<glyph unicode="&#xa7;" horiz-adv-x="1138" d="M106 690q2 94 70 170q63 70 158 105q-55 41 -86 112q-27 59 -27 115q0 12 2 22q0 123 103.5 204t236.5 79q174 -4 264.5 -109.5t92.5 -289.5h-78q6 131 -68 227q-80 102 -211 105q-98 2 -176 -58q-86 -63 -86 -158q0 -123 115 -219q61 -51 245.5 -148t251.5 -159 q117 -106 117 -252q0 -219 -227 -278q63 -59 90 -111q27 -57 27 -141q0 -145 -103 -219q-90 -63 -242 -64q-174 0 -273 108.5t-99 286.5h78q4 -145 75 -231q78 -96 217 -96q268 0 269 215q0 119 -117 213q-51 43 -252 155q-193 109 -262 177q-109 104 -105 239zM184 690 q0 -94 74 -170q45 -45 148 -106q115 -68 337 -207q43 -12 138 69q72 61 71 160q0 94 -86 178q-55 51 -172 121l-311 185q-199 -76 -199 -230z" />
<glyph unicode="&#xa8;" horiz-adv-x="342" d="M-37 1217v210h90v-210h-90zM287 1217v210h90v-210h-90z" />
<glyph unicode="&#xa9;" horiz-adv-x="964" d="M55 1036q0 172 119 291t291 119t290.5 -119t118.5 -291t-118.5 -291.5t-290.5 -119.5t-291 119.5t-119 291.5zM76 1036q0 -164 112.5 -277.5t276.5 -113.5t276.5 113.5t112.5 277.5q0 162 -113.5 275.5t-275.5 113.5t-275.5 -113.5t-113.5 -275.5zM303 1032 q0 117 66.5 203t179.5 106v-20q-102 -18 -163.5 -98t-61.5 -187q0 -135 86 -219q57 -57 139 -72v-18q-113 16 -179.5 102t-66.5 203z" />
<glyph unicode="&#xaa;" horiz-adv-x="636" d="M82 967q0 94 66.5 154.5t160.5 60.5q146 -2 201 -115v100q0 76 -61 109q-51 29 -127 22q-78 -6 -117 -45l-10 15q45 43 124 49q86 8 142 -23q66 -37 65 -120v-412h-16v96q-61 -106 -201 -106q-96 0 -161.5 59t-65.5 156zM102 967q0 -63 35 -117q57 -84 174 -84 q88 0 146.5 56.5t58.5 144.5q0 63 -37 114.5t-96 71.5q-41 12 -80 12q-86 0 -143.5 -55t-57.5 -143z" />
<glyph unicode="&#xab;" horiz-adv-x="796" d="M137 516v82l234 268v-104l-174 -205l174 -209v-100zM399 516v82l234 268v-104l-174 -205l174 -209v-100z" />
<glyph unicode="&#xac;" horiz-adv-x="1228" d="M98 678v78h1032v-535h-77v457h-955z" />
<glyph unicode="&#xad;" d="M57 457v26h506v-26h-506z" />
<glyph unicode="&#xae;" horiz-adv-x="964" d="M55 1036q0 172 119 291t291 119t290.5 -119t118.5 -291t-118.5 -291.5t-290.5 -119.5t-291 119.5t-119 291.5zM76 1036q0 -164 112.5 -277.5t276.5 -113.5t276.5 113.5t112.5 277.5q0 162 -113.5 275.5t-275.5 113.5t-275.5 -113.5t-113.5 -275.5zM381 733v594l16 -2 q94 -12 144.5 -63.5t50.5 -135.5q0 -104 -68 -163q-49 -41 -112 -48q31 -72 112 -129l41 -28l19 -10v-23l-17 8q-111 56 -166 158v-158h-20zM401 936h5l10 2q156 31 155 176q0 23 -6 51q-25 122 -164 140v-369z" />
<glyph unicode="&#xaf;" horiz-adv-x="481" d="M-4 1288v68h496v-68h-496z" />
<glyph unicode="&#xb0;" horiz-adv-x="819" d="M117 1145q0 123 85 208t208 85t207.5 -85t84.5 -208t-84.5 -208t-207.5 -85t-208 85t-85 208zM195 1145q0 -92 61 -158.5t154 -66.5q92 0 153.5 66.5t61.5 158.5q0 94 -61.5 159.5t-153.5 65.5t-153.5 -65.5t-61.5 -159.5z" />
<glyph unicode="&#xb1;" horiz-adv-x="1228" d="M98 0v78h1032v-78h-1032zM98 567v78h477v387h78v-387h477v-78h-477v-387h-78v387h-477z" />
<glyph unicode="&#xb4;" horiz-adv-x="342" d="M53 1210l246 287h104l-274 -287h-76z" />
<glyph unicode="&#xb6;" horiz-adv-x="1228" d="M135 1061q0 195 120 298t337 103h444v-1761h-78v1694h-321v-1694h-78v963q-178 0 -301 116.5t-123 280.5z" />
<glyph unicode="&#xb7;" horiz-adv-x="569" d="M174 649q0 43 34 77t77 34t77.5 -34t34.5 -77q0 -45 -33.5 -78.5t-78.5 -33.5q-43 0 -77 34.5t-34 77.5z" />
<glyph unicode="&#xb8;" horiz-adv-x="342" d="M-18 -358l22 49q102 -37 164 -37q129 0 129 96q0 45 -37 72q-29 23 -63 22q-55 0 -109 -24l-33 26l115 154h70l-99 -115l4 -4q41 18 76 19q63 0 107 -35q47 -41 47 -115q0 -152 -209 -151q-102 0 -184 43z" />
<glyph unicode="&#xba;" horiz-adv-x="681" d="M57 1042q0 127 81 207t208 80q217 0 275 -201q10 -41 10 -84q0 -47 -10 -86q-43 -145 -172 -186q-53 -16 -109 -16q-96 0 -168.5 54t-99.5 148q-14 43 -15 84zM76 1042q0 -137 104 -217q68 -53 160 -53q51 1 104 19q121 39 162 172q10 39 10 79q0 41 -10 80 q-41 135 -162 174q-55 16 -102 17q-115 0 -190.5 -78t-75.5 -193z" />
<glyph unicode="&#xbb;" horiz-adv-x="796" d="M164 248v100l174 209l-174 205v104l233 -268v-82zM426 248v100l174 209l-174 205v104l233 -268v-82z" />
<glyph unicode="&#xbf;" horiz-adv-x="1251" d="M205 -20q0 119 71 208q39 49 168 179q82 84 105.5 145t25.5 182h142q0 -78 -4 -110q-6 -55 -29 -105q-33 -78 -199 -250q-129 -135 -129 -252q0 -125 76 -197.5t203 -72.5q274 0 283 334h141q-2 -160 -53 -246q-119 -207 -385 -207q-182 0 -299 105.5t-117 286.5z M561 901v174h160v-174h-160z" />
<glyph unicode="&#xc0;" horiz-adv-x="960" d="M-29 0l506 1493l506 -1493h-25l-114 328h-731l-111 -328h-31zM121 352h713l-357 1073zM211 1839h104l246 -287h-76z" />
<glyph unicode="&#xc1;" horiz-adv-x="968" d="M-29 0l506 1493l506 -1493h-25l-114 328h-731l-111 -328h-31zM121 352h713l-357 1073zM389 1556l246 287h104l-274 -287h-76z" />
<glyph unicode="&#xc2;" horiz-adv-x="974" d="M-29 0l506 1493l506 -1493h-25l-114 328h-731l-111 -328h-31zM121 352h713l-357 1073zM190 1556l236 287h82l237 -287h-77l-201 236l-199 -236h-78z" />
<glyph unicode="&#xc3;" horiz-adv-x="960" d="M-29 0l506 1493l506 -1493h-25l-114 328h-731l-111 -328h-31zM121 352h713l-357 1073zM193 1552q6 76 48 130.5t109 54.5q41 0 144 -56q113 -61 139 -61q78 0 92 117h59q-10 -82 -43 -125q-45 -59 -112 -60q-45 0 -140.5 58.5t-144.5 58.5q-74 0 -92 -117h-59z" />
<glyph unicode="&#xc4;" horiz-adv-x="964" d="M-29 0l506 1493l506 -1493h-25l-114 328h-731l-111 -328h-31zM121 352h713l-357 1073zM233 1559v210h91v-210h-91zM557 1559v210h90v-210h-90z" />
<glyph unicode="&#xc5;" horiz-adv-x="962" d="M-29 0l506 1493l506 -1493h-25l-114 328h-731l-111 -328h-31zM121 352h713l-357 1073zM289 1749q0 84 59.5 143.5t143.5 59.5t143 -59.5t59 -143.5t-59.5 -143.5t-142.5 -59.5q-84 0 -143.5 59.5t-59.5 143.5zM344 1749q0 -61 43 -104t105 -43q61 0 104 43t43 104 t-43 104t-104 43t-104.5 -43t-43.5 -104z" />
<glyph unicode="&#xc6;" horiz-adv-x="1097" d="M-29 0l506 1495h527v-25h-502v-235h502v-25h-502v-694q0 -193 92 -321q98 -135 283 -170q63 -12 127 -11v-24h-29q-139 0 -252 61q-170 94 -223 277h-387l-111 -328h-31zM121 352h373q-17 70 -17 154v919z" />
<glyph unicode="&#xc7;" horiz-adv-x="704" d="M63 737q0 260 153 458t407 241v-25q-244 -37 -390 -231q-139 -184 -139 -437q0 -100 25 -206q47 -199 178 -335t328 -177l-2 -23q-125 27 -226 90l-166 -270q96 27 121 26q150 0 150 -135q0 -86 -72 -133q-63 -41 -154 -41q-90 0 -170 37l21 47q63 -27 125 -26 q133 0 133 106q0 47 -35 75.5t-84 28.5h-26q-12 -2 -47 -14l-17 19l211 284q-227 147 -297 432q-27 109 -27 209z" />
<glyph unicode="&#xc8;" horiz-adv-x="765" d="M127 1843h104l246 -287h-76zM143 506v928h527v-25h-502v-235h502v-25h-502v-633q0 -193 92 -321q98 -135 283 -170q63 -12 127 -11v-24h-29q-139 0 -252 61q-246 136 -246 455z" />
<glyph unicode="&#xc9;" horiz-adv-x="710" d="M143 506v928h527v-25h-502v-235h502v-25h-502v-633q0 -193 92 -321q98 -135 283 -170q63 -12 127 -11v-24h-29q-139 0 -252 61q-246 136 -246 455zM279 1563l245 286h105l-275 -286h-75z" />
<glyph unicode="&#xca;" horiz-adv-x="765" d="M129 1563l236 286h81l238 -286h-78l-200 235l-199 -235h-78zM143 506v928h527v-25h-502v-235h502v-25h-502v-633q0 -193 92 -321q98 -135 283 -170q63 -12 127 -11v-24h-29q-139 0 -252 61q-246 136 -246 455z" />
<glyph unicode="&#xcb;" horiz-adv-x="784" d="M143 506v928h527v-25h-502v-235h502v-25h-502v-633q0 -193 92 -321q98 -135 283 -170q63 -12 127 -11v-24h-29q-139 0 -252 61q-246 136 -246 455zM203 1554v211h90v-211h-90zM526 1554v211h90v-211h-90z" />
<glyph unicode="&#xcc;" horiz-adv-x="274" d="M-127 1839h104l246 -287h-76zM143 0v1434h25v-1434h-25z" />
<glyph unicode="&#xcd;" horiz-adv-x="294" d="M106 1556l246 287h105l-275 -287h-76zM143 0v1434h25v-1434h-25z" />
<glyph unicode="&#xce;" horiz-adv-x="299" d="M-129 1554l235 287h82l238 -287h-78l-201 236l-198 -236h-78zM143 0v1434h25v-1434h-25z" />
<glyph unicode="&#xcf;" horiz-adv-x="292" d="M-55 1561v211h90v-211h-90zM143 0v1434h25v-1434h-25zM268 1561v211h90v-211h-90z" />
<glyph unicode="&#xd0;" horiz-adv-x="868" d="M-2 807v27h145v602q305 -23 486 -193q190 -182 190 -481q0 -90 -16 -178q-68 -356 -420 -518q-106 -49 -240 -66v807h-145zM168 25q225 31 396 188.5t214 378.5q16 86 17 170q0 252 -148 422q-143 164 -393 215q-51 10 -86 12v-577h84v-27h-84v-782z" />
<glyph unicode="&#xd1;" horiz-adv-x="1038" d="M143 0v1434q14 0 47 -4q375 -39 705 -248l23 -15l28 -20v287h23v-1434h-23v1112l-28 21l-27 18q-10 8 -66 41q-193 119 -428 178q-121 31 -229 39v-1409h-25zM274 1552q6 76 48.5 130.5t109.5 54.5q41 0 143 -56q113 -61 140 -61q78 0 92 117h59q-10 -82 -43 -125 q-45 -59 -112 -60q-45 0 -140.5 58.5t-144.5 58.5q-74 0 -92 -117h-60z" />
<glyph unicode="&#xd2;" horiz-adv-x="1593" d="M53 715q0 330 207 537.5t537 207.5q262 0 450.5 -135t259.5 -385q31 -106 31 -221t-31 -221q-70 -240 -259 -381.5t-439 -141.5q-139 0 -279 45q-340 111 -444 478q-33 115 -33 217zM82 717q0 -109 29 -209q70 -242 251 -371t435 -129q305 0 509.5 197.5t204.5 501.5 q0 111 -30 223q-98 356 -428 461q-135 43 -269 43q-307 0 -504.5 -204t-197.5 -513zM539 1845h104l246 -286h-76z" />
<glyph unicode="&#xd3;" horiz-adv-x="1593" d="M53 715q0 330 207 537.5t537 207.5q262 0 450.5 -135t259.5 -385q31 -106 31 -221t-31 -221q-70 -240 -259 -381.5t-439 -141.5q-139 0 -279 45q-340 111 -444 478q-33 115 -33 217zM82 717q0 -109 29 -209q70 -242 251 -371t435 -129q305 0 509.5 197.5t204.5 501.5 q0 111 -30 223q-98 356 -428 461q-135 43 -269 43q-307 0 -504.5 -204t-197.5 -513zM633 1550l246 287h104l-274 -287h-76z" />
<glyph unicode="&#xd4;" horiz-adv-x="1593" d="M53 715q0 330 207 537.5t537 207.5q262 0 450.5 -135t259.5 -385q31 -106 31 -221t-31 -221q-70 -240 -259 -381.5t-439 -141.5q-139 0 -279 45q-340 111 -444 478q-33 115 -33 217zM82 717q0 -109 29 -209q70 -242 251 -371t435 -129q305 0 509.5 197.5t204.5 501.5 q0 111 -30 223q-98 356 -428 461q-135 43 -269 43q-307 0 -504.5 -204t-197.5 -513zM485 1550l236 287h82l237 -287h-77l-201 236l-199 -236h-78z" />
<glyph unicode="&#xd5;" horiz-adv-x="1593" d="M53 715q0 330 207 537.5t537 207.5q262 0 450.5 -135t259.5 -385q31 -106 31 -221t-31 -221q-70 -240 -259 -381.5t-439 -141.5q-139 0 -279 45q-340 111 -444 478q-33 115 -33 217zM82 717q0 -109 29 -209q70 -242 251 -371t435 -129q305 0 509.5 197.5t204.5 501.5 q0 111 -30 223q-98 356 -428 461q-135 43 -269 43q-307 0 -504.5 -204t-197.5 -513zM455 1556q8 74 47 125q43 59 110 60q43 0 144 -55q115 -61 139 -62q80 0 92 117h60q-10 -82 -43 -125q-43 -59 -113 -60q-43 0 -138.5 58.5t-146.5 58.5q-74 0 -92 -117h-59z" />
<glyph unicode="&#xd6;" horiz-adv-x="1581" d="M53 715q0 330 207 537.5t537 207.5q262 0 450.5 -135t259.5 -385q31 -106 31 -221t-31 -221q-70 -240 -259 -381.5t-439 -141.5q-139 0 -279 45q-340 111 -444 478q-33 115 -33 217zM82 717q0 -109 29 -209q70 -242 251 -371t435 -129q305 0 509.5 197.5t204.5 501.5 q0 111 -30 223q-98 356 -428 461q-135 43 -269 43q-307 0 -504.5 -204t-197.5 -513zM582 1559v210h90v-210h-90zM905 1559v210h90v-210h-90z" />
<glyph unicode="&#xd7;" horiz-adv-x="1196" d="M106 948l80 80l412 -426l414 426l75 -80l-409 -430l409 -430l-75 -80l-414 430l-414 -432l-75 84l411 428z" />
<glyph unicode="&#xd8;" horiz-adv-x="1654" d="M53 715q0 330 207 537.5t537 207.5t532 -207l234 244l16 -14l-236 -244q195 -211 195 -520q0 -115 -31 -221q-70 -240 -259 -381.5t-439 -141.5q-313 0 -516 177l-150 -156l-16 12l152 158q-133 125 -193 332q-33 115 -33 217zM82 717q0 -328 219 -529l1012 1049 q-197 197 -529 197q-307 0 -504.5 -204t-197.5 -513zM315 174q193 -166 482 -166q305 0 509.5 197.5t204.5 501.5q0 111 -30 223q-50 176 -154 291z" />
<glyph unicode="&#xd9;" horiz-adv-x="933" d="M143 334v1100h25v-1100q0 -152 76 -240q80 -94 227 -94q53 0 125 16q207 47 207 318v1100h24v-1100q0 -311 -274 -350q-70 -10 -135 0q-275 41 -275 350zM221 1847h105l245 -286h-75z" />
<glyph unicode="&#xda;" horiz-adv-x="952" d="M143 334v1100h25v-1100q0 -152 76 -240q80 -94 227 -94q53 0 125 16q207 47 207 318v1100h24v-1100q0 -311 -274 -350q-70 -10 -135 0q-275 41 -275 350zM399 1554l246 287h105l-275 -287h-76z" />
<glyph unicode="&#xdb;" horiz-adv-x="944" d="M143 334v1100h25v-1100q0 -152 76 -240q80 -94 227 -94q53 0 125 16q207 47 207 318v1100h24v-1100q0 -311 -274 -350q-70 -10 -135 0q-275 41 -275 350zM233 1554l236 287h82l237 -287h-77l-201 236l-199 -236h-78z" />
<glyph unicode="&#xdc;" horiz-adv-x="880" d="M143 334v1100h25v-1100q0 -152 76 -240q80 -94 227 -94q53 0 125 16q207 47 207 318v1100h24v-1100q0 -311 -274 -350q-70 -10 -135 0q-275 41 -275 350zM309 1561v211h90v-211h-90zM633 1561v211h90v-211h-90z" />
<glyph unicode="&#xdd;" horiz-adv-x="661" d="M-57 1434h32l347 -297l344 297h32l-366 -322v-1112h-23v1112zM246 1554l246 287h104l-274 -287h-76z" />
<glyph unicode="&#xde;" horiz-adv-x="698" d="M143 0v1436h2v180h25v-182q209 -18 344 -146q141 -133 141 -340q0 -70 -14 -135q-57 -260 -360 -348q-16 -6 -60 -14l-28 -5l-25 -2v-444h-25zM168 469q236 16 371 182q94 115 94 277q0 61 -17 133q-31 137 -142.5 231t-254.5 111l-26 6l-23 2v-61h-2v-881z" />
<glyph unicode="&#xdf;" horiz-adv-x="1024" d="M119 0v1100q0 387 373 387q170 0 272 -84q113 -90 113 -256q0 -268 -244 -322v-4q156 -18 235.5 -119.5t79.5 -263.5q0 -258 -160 -368q-102 -70 -251 -70h-113v68h78q369 0 368 370q0 188 -129 271q-106 67 -317 67v68q162 0 262 69q113 80 113 234q0 129 -90 205 q-84 68 -217 67q-295 0 -295 -319v-1100h-78z" />
<glyph unicode="&#xe0;" horiz-adv-x="745" d="M57 293q0 135 94.5 221t229.5 86q207 -2 287 -162v144q0 106 -86 153q-74 41 -185 33q-109 -8 -166 -66l-14 21q66 63 178 72q123 10 201 -35q94 -51 94 -170v-590h-22v137q-88 -152 -287 -151q-139 0 -231.5 85t-92.5 222zM84 295q0 -92 51 -166q82 -121 250 -121 q125 0 208 80t83 205q0 90 -52.5 164.5t-138.5 101.5q-57 18 -112 19q-123 0 -206 -80t-83 -203zM166 1188h104l246 -287h-76z" />
<glyph unicode="&#xe1;" horiz-adv-x="757" d="M57 293q0 135 94.5 221t229.5 86q207 -2 287 -162v144q0 106 -86 153q-74 41 -185 33q-109 -8 -166 -66l-14 21q66 63 178 72q123 10 201 -35q94 -51 94 -170v-590h-22v137q-88 -152 -287 -151q-139 0 -231.5 85t-92.5 222zM84 295q0 -92 51 -166q82 -121 250 -121 q125 0 208 80t83 205q0 90 -52.5 164.5t-138.5 101.5q-57 18 -112 19q-123 0 -206 -80t-83 -203zM319 901l246 287h105l-275 -287h-76z" />
<glyph unicode="&#xe2;" horiz-adv-x="745" d="M57 293q0 135 94.5 221t229.5 86q207 -2 287 -162v144q0 106 -86 153q-74 41 -185 33q-109 -8 -166 -66l-14 21q66 63 178 72q123 10 201 -35q94 -51 94 -170v-590h-22v137q-88 -152 -287 -151q-139 0 -231.5 85t-92.5 222zM84 295q0 -92 51 -166q82 -121 250 -121 q125 0 208 80t83 205q0 90 -52.5 164.5t-138.5 101.5q-57 18 -112 19q-123 0 -206 -80t-83 -203zM168 901l235 287h82l238 -287h-78l-201 236l-198 -236h-78z" />
<glyph unicode="&#xe3;" horiz-adv-x="751" d="M57 293q0 135 94.5 221t229.5 86q207 -2 287 -162v144q0 106 -86 153q-74 41 -185 33q-109 -8 -166 -66l-14 21q66 63 178 72q123 10 201 -35q94 -51 94 -170v-590h-22v137q-88 -152 -287 -151q-139 0 -231.5 85t-92.5 222zM84 295q0 -92 51 -166q82 -121 250 -121 q125 0 208 80t83 205q0 90 -52.5 164.5t-138.5 101.5q-57 18 -112 19q-123 0 -206 -80t-83 -203zM154 903q8 74 47 125q43 59 110 59q43 0 144 -55q115 -61 139 -61q80 0 92 116h59q-10 -82 -43 -124q-43 -59 -112 -60q-43 0 -138.5 58.5t-146.5 58.5q-74 0 -92 -117h-59z " />
<glyph unicode="&#xe4;" horiz-adv-x="745" d="M57 293q0 135 94.5 221t229.5 86q207 -2 287 -162v144q0 106 -86 153q-74 41 -185 33q-109 -8 -166 -66l-14 21q66 63 178 72q123 10 201 -35q94 -51 94 -170v-590h-22v137q-88 -152 -287 -151q-139 0 -231.5 85t-92.5 222zM84 295q0 -92 51 -166q82 -121 250 -121 q125 0 208 80t83 205q0 90 -52.5 164.5t-138.5 101.5q-57 18 -112 19q-123 0 -206 -80t-83 -203zM242 901v211h90v-211h-90zM565 901v211h90v-211h-90z" />
<glyph unicode="&#xe5;" horiz-adv-x="753" d="M57 293q0 135 94.5 221t229.5 86q207 -2 287 -162v144q0 106 -86 153q-74 41 -185 33q-109 -8 -166 -66l-14 21q66 63 178 72q123 10 201 -35q94 -51 94 -170v-590h-22v137q-88 -152 -287 -151q-139 0 -231.5 85t-92.5 222zM84 295q0 -92 51 -166q82 -121 250 -121 q125 0 208 80t83 205q0 90 -52.5 164.5t-138.5 101.5q-57 18 -112 19q-123 0 -206 -80t-83 -203zM229 1104q0 84 59.5 143.5t143.5 59.5q86 0 144.5 -59.5t58.5 -143.5t-58.5 -143.5t-144.5 -59.5q-84 0 -143.5 59.5t-59.5 143.5zM285 1104q0 -61 43 -104.5t104 -43.5 t104.5 43t43.5 105q0 61 -43 104t-105 43q-61 0 -104 -43t-43 -104z" />
<glyph unicode="&#xe6;" horiz-adv-x="1316" d="M57 293q0 135 94.5 221t229.5 86q201 -2 283 -154q2 14 4 31v105q0 106 -86 153q-74 41 -185 33q-109 -8 -166 -66l-14 21q66 63 178 72q123 10 201 -35q94 -51 94 -170v-33q31 78 92 137q127 121 326 107q94 -9 184 -58l-63 -45l-150 -102l-176 -127l-213 -147 q4 -23 15 -68q72 -207 282 -240l-6 -24q-215 41 -291 239v-229h-22v137q-88 -152 -287 -151q-139 0 -231.5 85t-92.5 222zM84 295q0 -92 51 -167t137 -101q59 -18 113 -19q119 0 202 74.5t89 193.5q-12 49 -14 101v8q-45 133 -177 174q-57 18 -112 19q-123 0 -206 -80 t-83 -203zM690 350l31 25l24 16l54 37l86 57l366 256q-86 35 -186 35q-145 0 -248.5 -87t-126.5 -228v-111z" />
<glyph unicode="&#xe7;" horiz-adv-x="475" d="M51 -369l21 47q66 -29 125 -28q55 0 93 27.5t38 80.5q0 43 -33 74t-76 31q-27 0 -82 -15l-14 21l145 162q-209 104 -209 362q0 150 87.5 261.5t232.5 138.5v-25q-133 -25 -213 -129t-80 -242q0 -176 111 -284q76 -76 182 -93v-24q-51 8 -96 29l-103 -144q94 25 119 25 q63 0 104 -38t41 -99q0 -86 -69 -134q-59 -41 -152 -41q-92 0 -172 37z" />
<glyph unicode="&#xe8;" horiz-adv-x="747" d="M68 377q-6 197 121.5 317.5t324.5 106.5q94 -9 184 -58l-63 -45l-150 -102l-176 -127l-213 -147q4 -23 15 -68q72 -207 282 -240l-6 -24q-86 16 -154 65q-158 115 -165 322zM94 348l33 27l25 16l53 37l86 57l366 256q-86 35 -186 35q-150 0 -254 -91t-123 -239 q-6 -47 0 -98zM166 1188h104l246 -287h-76z" />
<glyph unicode="&#xe9;" horiz-adv-x="737" d="M68 377q-6 197 121.5 317.5t324.5 106.5q94 -9 184 -58l-63 -45l-150 -102l-176 -127l-213 -147q4 -23 15 -68q72 -207 282 -240l-6 -24q-86 16 -154 65q-158 115 -165 322zM94 348l33 27l25 16l53 37l86 57l366 256q-86 35 -186 35q-150 0 -254 -91t-123 -239 q-6 -47 0 -98zM279 901l245 287h105l-275 -287h-75z" />
<glyph unicode="&#xea;" horiz-adv-x="753" d="M68 377q-6 197 121.5 317.5t324.5 106.5q94 -9 184 -58l-63 -45l-150 -102l-176 -127l-213 -147q4 -23 15 -68q72 -207 282 -240l-6 -24q-86 16 -154 65q-158 115 -165 322zM94 348l33 27l25 16l53 37l86 57l366 256q-86 35 -186 35q-150 0 -254 -91t-123 -239 q-6 -47 0 -98zM113 901l235 287h82l238 -287h-78l-201 236l-199 -236h-77z" />
<glyph unicode="&#xeb;" horiz-adv-x="753" d="M68 377q-6 197 121.5 317.5t324.5 106.5q94 -9 184 -58l-63 -45l-150 -102l-176 -127l-213 -147q4 -23 15 -68q72 -207 282 -240l-6 -24q-86 16 -154 65q-158 115 -165 322zM94 348l33 27l25 16l53 37l86 57l366 256q-86 35 -186 35q-150 0 -254 -91t-123 -239 q-6 -47 0 -98zM164 903v211h90v-211h-90zM487 903v211h91v-211h-91z" />
<glyph unicode="&#xec;" horiz-adv-x="212" d="M-176 1188h104l246 -287h-76zM109 0v782h24v-782h-24z" />
<glyph unicode="&#xed;" horiz-adv-x="229" d="M51 901l246 287h104l-274 -287h-76zM109 0v782h24v-782h-24z" />
<glyph unicode="&#xee;" horiz-adv-x="221" d="M-145 905l235 287h82l238 -287h-78l-201 236l-199 -236h-77zM109 0v782h24v-782h-24z" />
<glyph unicode="&#xef;" horiz-adv-x="233" d="M-96 903v211h90v-211h-90zM109 0v782h24v-782h-24zM227 903v211h90v-211h-90z" />
<glyph unicode="&#xf0;" horiz-adv-x="1099" d="M66 510q0 223 127 371q133 156 358 155q209 0 334 -151l4 4q-86 203 -318 385l-229 -127l-43 45l221 123q-113 86 -211 133l58 49q123 -66 221 -145l235 131l41 -45l-223 -125q391 -313 391 -803q0 -233 -121 -377q-129 -158 -360 -158q-238 0 -367 156 q-119 143 -118 379zM143 510q0 -195 101 -324q111 -143 307 -143q199 0 307 141q96 127 96 326q0 190 -100 319q-113 140 -303 140t-303 -140q-104 -129 -105 -319z" />
<glyph unicode="&#xf1;" horiz-adv-x="776" d="M115 0v782h24v-166q8 16 8 25q63 164 275 164q115 0 196 -51q98 -59 99 -168v-586h-25v543q0 119 -74.5 180t-195.5 57q-211 -6 -268 -182q-14 -43 -15 -82v-516h-24zM115 905q8 74 49 129.5t108 55.5q43 0 144 -56q115 -61 139 -61q80 0 92 117h60q-10 -82 -43 -125 q-43 -59 -113 -60q-43 0 -138.5 58.5t-146.5 58.5q-74 0 -92 -117h-59z" />
<glyph unicode="&#xf2;" horiz-adv-x="937" d="M53 391q0 180 116 295t296 115q145 0 248.5 -75t142.5 -212q16 -57 16 -121q0 -66 -16 -123q-59 -205 -244 -264q-78 -25 -155 -24q-139 0 -242.5 77.5t-142.5 210.5q-18 63 -19 121zM78 391q0 -197 151 -311q96 -74 228 -74q73 0 149 25q172 55 230 245q16 55 16 115 q0 59 -16 115q-57 195 -230 248q-78 25 -147 24q-164 0 -272.5 -111.5t-108.5 -275.5zM166 1188h104l246 -287h-76z" />
<glyph unicode="&#xf3;" horiz-adv-x="925" d="M53 391q0 180 116 295t296 115q145 0 248.5 -75t142.5 -212q16 -57 16 -121q0 -66 -16 -123q-59 -205 -244 -264q-78 -25 -155 -24q-139 0 -242.5 77.5t-142.5 210.5q-18 63 -19 121zM78 391q0 -197 151 -311q96 -74 228 -74q73 0 149 25q172 55 230 245q16 55 16 115 q0 59 -16 115q-57 195 -230 248q-78 25 -147 24q-164 0 -272.5 -111.5t-108.5 -275.5zM354 905l246 287h105l-275 -287h-76z" />
<glyph unicode="&#xf4;" horiz-adv-x="931" d="M53 391q0 180 116 295t296 115q145 0 248.5 -75t142.5 -212q16 -57 16 -121q0 -66 -16 -123q-59 -205 -244 -264q-78 -25 -155 -24q-139 0 -242.5 77.5t-142.5 210.5q-18 63 -19 121zM78 391q0 -197 151 -311q96 -74 228 -74q73 0 149 25q172 55 230 245q16 55 16 115 q0 59 -16 115q-57 195 -230 248q-78 25 -147 24q-164 0 -272.5 -111.5t-108.5 -275.5zM188 901l236 287h82l237 -287h-77l-201 236l-199 -236h-78z" />
<glyph unicode="&#xf5;" horiz-adv-x="931" d="M53 391q0 180 116 295t296 115q145 0 248.5 -75t142.5 -212q16 -57 16 -121q0 -66 -16 -123q-59 -205 -244 -264q-78 -25 -155 -24q-139 0 -242.5 77.5t-142.5 210.5q-18 63 -19 121zM78 391q0 -197 151 -311q96 -74 228 -74q73 0 149 25q172 55 230 245q16 55 16 115 q0 59 -16 115q-57 195 -230 248q-78 25 -147 24q-164 0 -272.5 -111.5t-108.5 -275.5zM164 901q8 76 49 130t109 54q43 0 143 -55q115 -61 139 -61q80 0 92 116h60q-10 -82 -43 -124q-43 -59 -113 -60q-43 0 -138 58.5t-147 58.5q-74 0 -92 -117h-59z" />
<glyph unicode="&#xf6;" horiz-adv-x="937" d="M53 391q0 180 116 295t296 115q145 0 248.5 -75t142.5 -212q16 -57 16 -121q0 -66 -16 -123q-59 -205 -244 -264q-78 -25 -155 -24q-139 0 -242.5 77.5t-142.5 210.5q-18 63 -19 121zM78 391q0 -197 151 -311q96 -74 228 -74q73 0 149 25q172 55 230 245q16 55 16 115 q0 59 -16 115q-57 195 -230 248q-78 25 -147 24q-164 0 -272.5 -111.5t-108.5 -275.5zM258 907v211h90v-211h-90zM582 907v211h90v-211h-90z" />
<glyph unicode="&#xf7;" horiz-adv-x="780" d="M37 457v26h711v-26h-711zM379 156v157h27v-157h-27zM379 627v157h27v-157h-27z" />
<glyph unicode="&#xf8;" horiz-adv-x="964" d="M27 4l123 119q-96 115 -97 268q0 180 116 295t296 115q172 0 280 -103l113 109l14 -14l-112 -109q113 -115 112 -291q0 -66 -16 -123q-59 -205 -244 -264q-78 -25 -155 -24q-180 0 -295 124l-121 -116zM78 391q0 -146 88 -252l565 545q-104 94 -272 94 q-164 0 -272.5 -111.5t-108.5 -275.5zM180 123q109 -117 277 -117q74 0 149 25q172 55 230 245q16 55 16 115q-1 168 -107 279z" />
<glyph unicode="&#xf9;" horiz-adv-x="772" d="M115 250v532h24v-532q0 -248 267 -248q270 0 270 248v532h22v-532q0 -227 -204 -264q-47 -8 -95 -9q-131 0 -207.5 72t-76.5 201zM166 1188h104l246 -287h-76z" />
<glyph unicode="&#xfa;" horiz-adv-x="794" d="M115 250v532h24v-532q0 -248 267 -248q270 0 270 248v532h22v-532q0 -227 -204 -264q-47 -8 -95 -9q-131 0 -207.5 72t-76.5 201zM266 903l246 287h104l-274 -287h-76z" />
<glyph unicode="&#xfb;" horiz-adv-x="776" d="M115 250v532h24v-532q0 -248 267 -248q270 0 270 248v532h22v-532q0 -227 -204 -264q-47 -8 -95 -9q-131 0 -207.5 72t-76.5 201zM139 897l236 287h82l237 -287h-78l-200 236l-199 -236h-78z" />
<glyph unicode="&#xfc;" horiz-adv-x="759" d="M115 250v532h24v-532q0 -248 267 -248q270 0 270 248v532h22v-532q0 -227 -204 -264q-47 -8 -95 -9q-131 0 -207.5 72t-76.5 201zM215 899v211h90v-211h-90zM539 899v211h90v-211h-90z" />
<glyph unicode="&#xfd;" horiz-adv-x="561" d="M-14 782h30l265 -757l264 757h28l-503 -1427h-29l223 635zM166 915l246 287h104l-274 -287h-76z" />
<glyph unicode="&#xfe;" horiz-adv-x="1017" d="M113 653v729h26v-600v-235q45 121 148.5 186.5t234.5 65.5q143 0 249 -77t144 -214q18 -66 19 -127q0 -174 -118 -289t-294 -115q-137 0 -238.5 70t-144.5 199v-891h-24v1298h-2zM139 387q0 -170 106.5 -277.5t276.5 -107.5q166 0 276.5 107.5t110.5 271.5q0 61 -16 121 q-53 193 -231 250q-76 25 -146 24q-166 0 -271.5 -110.5t-105.5 -278.5z" />
<glyph unicode="&#xff;" horiz-adv-x="561" d="M-14 782h30l265 -757l264 757h28l-503 -1427h-29l223 635zM80 905v211h90v-211h-90zM403 905v211h91v-211h-91z" />
<glyph unicode="&#x152;" horiz-adv-x="1425" d="M53 715q0 330 207 537.5t537 207.5h2v6h526v-24h-502v-236h502v-24h-502v-666q0 -193 92 -321q98 -135 283 -170q63 -12 127 -11v-24h-29q-111 0 -204 39q-129 -53 -283 -54q-139 0 -279 45q-340 111 -444 478q-33 115 -33 217zM82 717q0 -109 29 -209q70 -242 251 -371 t435 -129q137 0 254 39l-7 4q-245 133 -245 455v928h-15q-307 2 -504.5 -204t-197.5 -513z" />
<glyph unicode="&#x153;" horiz-adv-x="1511" d="M53 391q0 180 116 295t296 115q143 0 248.5 -75t142.5 -212l2 -8q27 109 109 188q127 121 325 107q95 -9 185 -58l-64 -45l-149 -102l-177 -127l-213 -147q4 -23 15 -68q72 -207 282 -240l-6 -24q-86 16 -153 65q-119 86 -154 226l-2 -11q-55 -205 -244 -264 q-78 -25 -155 -24q-139 0 -242.5 77.5t-142.5 210.5q-18 63 -19 121zM78 391q0 -197 151 -311q96 -74 228 -74q74 0 149 25q172 55 230 245q8 31 12 62q-2 18 -2 39q-2 37 2 72q-33 240 -242 305q-78 25 -147 24q-164 0 -272.5 -111.5t-108.5 -275.5zM870 358l2 -10l33 27 l25 16l53 37l86 57l367 256q-86 35 -187 35q-154 0 -259 -96t-120 -248q2 -18 2 -39q0 -18 -2 -35z" />
<glyph unicode="&#x178;" horiz-adv-x="675" d="M-57 1434h32l347 -297l344 297h32l-366 -322v-1112h-23v1112zM135 1561v211h90v-211h-90zM459 1561v211h90v-211h-90z" />
<glyph unicode="&#x2c6;" horiz-adv-x="526" d="M-12 1210l235 287h82l238 -287h-78l-201 236l-198 -236h-78z" />
<glyph unicode="&#x2dc;" horiz-adv-x="581" d="M-2 1233q6 74 48 129t110 55q41 0 143 -55q113 -61 139 -62q78 0 92 117h60q-10 -82 -43 -125q-45 -59 -113 -59q-45 0 -140 58.5t-144 58.5q-75 0 -93 -117h-59z" />
<glyph unicode="&#x2000;" horiz-adv-x="976" />
<glyph unicode="&#x2001;" horiz-adv-x="1952" />
<glyph unicode="&#x2002;" horiz-adv-x="976" />
<glyph unicode="&#x2003;" horiz-adv-x="1952" />
<glyph unicode="&#x2004;" horiz-adv-x="650" />
<glyph unicode="&#x2005;" horiz-adv-x="488" />
<glyph unicode="&#x2006;" horiz-adv-x="325" />
<glyph unicode="&#x2007;" horiz-adv-x="325" />
<glyph unicode="&#x2008;" horiz-adv-x="244" />
<glyph unicode="&#x2009;" horiz-adv-x="390" />
<glyph unicode="&#x200a;" horiz-adv-x="108" />
<glyph unicode="&#x2010;" d="M57 457v26h506v-26h-506z" />
<glyph unicode="&#x2011;" d="M57 457v26h506v-26h-506z" />
<glyph unicode="&#x2012;" d="M57 457v26h506v-26h-506z" />
<glyph unicode="&#x2013;" horiz-adv-x="1024" d="M0 518v78h1024v-78h-1024z" />
<glyph unicode="&#x2014;" horiz-adv-x="2048" d="M0 518v78h2048v-78h-2048z" />
<glyph unicode="&#x2018;" horiz-adv-x="251" d="M6 1092l158 354l24 -10l-157 -355z" />
<glyph unicode="&#x2019;" horiz-adv-x="251" d="M-4 1092l158 354l24 -10l-158 -355z" />
<glyph unicode="&#x201a;" horiz-adv-x="417" d="M125 -190q70 31 70 190h-43v211h104v-211q0 -209 -131 -258v68z" />
<glyph unicode="&#x201c;" horiz-adv-x="385" d="M16 1092l158 354l25 -10l-158 -355zM176 1092l158 354l24 -10l-157 -355z" />
<glyph unicode="&#x201d;" horiz-adv-x="395" d="M8 1092l158 354l24 -10l-157 -355zM168 1092l158 354l24 -10l-157 -355z" />
<glyph unicode="&#x201e;" horiz-adv-x="645" d="M125 -190q70 31 70 190h-43v211h104v-211q0 -209 -131 -258v68zM383 -190q70 31 70 190h-43v211h104v-211q0 -209 -131 -258v68z" />
<glyph unicode="&#x2022;" horiz-adv-x="716" d="M57 735q0 135 85 229.5t218 94.5q129 0 216.5 -96.5t87.5 -227.5t-88.5 -226t-217.5 -95q-131 0 -216 94t-85 227z" />
<glyph unicode="&#x2026;" horiz-adv-x="2048" d="M289 0v211h104v-211h-104zM971 0v211h104v-211h-104zM1653 0v211h104v-211h-104z" />
<glyph unicode="&#x202f;" horiz-adv-x="390" />
<glyph unicode="&#x2039;" horiz-adv-x="530" d="M137 516v82l234 268v-104l-174 -205l174 -209v-100z" />
<glyph unicode="&#x203a;" horiz-adv-x="530" d="M160 248v100l174 209l-174 205v104l233 -268v-82z" />
<glyph unicode="&#x205f;" horiz-adv-x="488" />
<glyph unicode="&#x2122;" horiz-adv-x="1333" d="M33 1409v25h489v-25h-231v-786h-25v786h-233zM510 621l199 829l190 -363l180 363l215 -829h-24l-195 755l-176 -338l-176 332l-188 -749h-25z" />
<glyph unicode="&#x25fc;" horiz-adv-x="778" d="M0 0v778h778v-778h-778z" />
</font>
</defs>
</svg>
